<svg id="Layer_1" data-name="Layer 1" xmlns="http://www.w3.org/2000/svg" viewBox="0 0 88.3 65.55"><defs><style>.cls-1{fill:#3c3835;}</style></defs><title>noodles</title><path class="cls-1" d="M1095.37,24.21a1.77,1.77,0,0,0-2.66-2.34l-12.6,14.32a1.7,1.7,0,0,0-.22.38c-0.37-.3-0.75-0.59-1.14-0.85a1.66,1.66,0,0,0,.27-0.24l14.69-20.74a1.77,1.77,0,0,0-2.89-2l-14.69,20.74a1.74,1.74,0,0,0-.29.69,17.23,17.23,0,0,0-11.93-.6,22,22,0,0,0-29-.28s0,0,0,0a7.4,7.4,0,0,0-6.13-6.6,4.55,4.55,0,0,1-3.55-2.59,6.37,6.37,0,0,1,.14-5,0.89,0.89,0,0,0-1.51-.93,8,8,0,0,0-.25,6.59,6.25,6.25,0,0,0,4.82,3.62,5.58,5.58,0,0,1,4.68,4.88,17.16,17.16,0,0,0-21.25,16h-3.48a0.89,0.89,0,0,0-.89.89c0,14.82,18.76,27.33,41,27.33s41-12.52,41-27.33a0.89,0.89,0,0,0-.89-0.89h-2.26a17.16,17.16,0,0,0-4-10.38,1.74,1.74,0,0,0,.5-0.37Zm-33.33,10a17.18,17.18,0,0,0-2.17,1.17A17.88,17.88,0,0,0,1049.26,32a18.13,18.13,0,0,0-10.78,3.58,17.25,17.25,0,0,0-2.14-1.18A20.25,20.25,0,0,1,1062,34.25Zm-15.74,15a17.21,17.21,0,0,0-.2-2,4.16,4.16,0,0,1,6-.31,17.28,17.28,0,0,0-.25,2.34h-5.56Zm6.25-4.24a5.89,5.89,0,0,0-6.9.21,17.14,17.14,0,0,0-.78-2.18,8.39,8.39,0,0,1,8.49-.16A17.08,17.08,0,0,0,1052.56,45Zm1.62-3.71a10.2,10.2,0,0,0-10.1.15,17.28,17.28,0,0,0-1.24-1.87,12.48,12.48,0,0,1,12.6-.15A17.29,17.29,0,0,0,1054.18,41.33Zm2.43-3.23a14.26,14.26,0,0,0-14.92.14,17.41,17.41,0,0,0-1.7-1.61,16.28,16.28,0,0,1,18.36-.13A17.36,17.36,0,0,0,1056.61,38.1Zm-27.52-3.59a15.48,15.48,0,0,1,15.44,14.77h-2.37a13.09,13.09,0,0,0-26.15,0h-2.36A15.48,15.48,0,0,1,1029.09,34.51Zm4.77,14.77a4.82,4.82,0,0,0-9.54,0H1022a7.17,7.17,0,0,1,14.27,0h-2.36Zm-1.79,0h-6A3.06,3.06,0,0,1,1032.07,49.28Zm5.93,0a8.93,8.93,0,0,0-17.81,0h-2.4a11.33,11.33,0,0,1,22.61,0H1038Zm10.48,26.45c-20.79,0-38.42-11.21-39.16-24.68h31.15a7.25,7.25,0,0,0,4.85,6.68,4.55,4.55,0,0,1,3,3.18,6.37,6.37,0,0,1-1,4.86,0.89,0.89,0,0,0,1.33,1.18,8,8,0,0,0,1.41-6.44,6.25,6.25,0,0,0-4.11-4.42,5.5,5.5,0,0,1-3.73-5H1052a7.25,7.25,0,0,0,4.85,6.68,0.89,0.89,0,0,0,.33.06,0.89,0.89,0,0,0,.33-1.71,5.5,5.5,0,0,1-3.73-5h33.88C1086.89,64.52,1069.26,75.73,1048.48,75.73Zm25.36-26.45a4.82,4.82,0,0,0-9.53,0h-2.36a7.16,7.16,0,0,1,14.26,0h-2.36Zm-1.79,0h-6A3.06,3.06,0,0,1,1072,49.28Zm5.93,0a8.93,8.93,0,0,0-17.81,0h-2.4a11.33,11.33,0,0,1,22.61,0H1078Zm4.17,0a13.09,13.09,0,0,0-26.15,0h-2.36a15.46,15.46,0,0,1,30.88,0h-2.37Z" transform="translate(-1007.52 -11.95)"/></svg>