<?xml version="1.0" encoding="UTF-8" standalone="no"?>
<svg
   xmlns:dc="http://purl.org/dc/elements/1.1/"
   xmlns:cc="http://creativecommons.org/ns#"
   xmlns:rdf="http://www.w3.org/1999/02/22-rdf-syntax-ns#"
   xmlns:svg="http://www.w3.org/2000/svg"
   xmlns="http://www.w3.org/2000/svg"
   xmlns:sodipodi="http://sodipodi.sourceforge.net/DTD/sodipodi-0.dtd"
   xmlns:inkscape="http://www.inkscape.org/namespaces/inkscape"
   id="Layer_1"
   data-name="Layer 1"
   viewBox="0 0 883 655.5"
   version="1.1"
   sodipodi:docname="noodles.svg"
   width="883"
   height="655.5"
   inkscape:version="0.92.1 r">
  <metadata
     id="metadata13">
    <rdf:RDF>
      <cc:Work
         rdf:about="">
        <dc:format>image/svg+xml</dc:format>
        <dc:type
           rdf:resource="http://purl.org/dc/dcmitype/StillImage" />
        <dc:title>noodles</dc:title>
      </cc:Work>
    </rdf:RDF>
  </metadata>
  <sodipodi:namedview
     pagecolor="#ffffff"
     bordercolor="#666666"
     borderopacity="1"
     objecttolerance="10"
     gridtolerance="10"
     guidetolerance="10"
     inkscape:pageopacity="0"
     inkscape:pageshadow="2"
     inkscape:window-width="1596"
     inkscape:window-height="843"
     id="namedview11"
     showgrid="false"
     scale-x="2"
     inkscape:zoom="0.31822501"
     inkscape:cx="44.150002"
     inkscape:cy="32.775002"
     inkscape:window-x="0"
     inkscape:window-y="36"
     inkscape:window-maximized="0"
     inkscape:current-layer="Layer_1"
     units="px" />
  <defs
     id="defs4">
    <style
       id="style2">.cls-1{fill:#3c3835;}</style>
  </defs>
  <title
     id="title6">noodles</title>
  <path
     class="cls-1"
     d="M 876.13248,119.66315 A 17.660681,17.660681 0 0 0 849.61229,96.333424 L 723.99049,239.10362 a 16.948978,16.948978 0 0 0 -2.19344,3.7886 c -3.68885,-2.99102 -7.47745,-5.8823 -11.36575,-8.47448 a 16.550179,16.550179 0 0 0 2.69188,-2.39278 L 859.58228,25.247421 A 17.646877,17.646877 0 0 0 830.76904,5.3074031 L 684.3099,212.08494 a 17.347778,17.347778 0 0 0 -2.89127,6.87931 171.78288,171.78288 0 0 0 -118.94193,-5.98199 219.33972,219.33972 0 0 0 -289.12965,-2.79162 c 0,0 0,0 0,0 a 73.777907,73.777907 0 0 0 -61.11602,-65.8019 45.363442,45.363442 0 0 1 -35.39346,-25.82226 63.508816,63.508816 0 0 1 1.3958,-49.849919 8.8732884,8.8732884 0 0 0 -15.05468,-9.272103 79.759898,79.759898 0 0 0 -2.4925,65.702202 62.312418,62.312418 0 0 0 48.05534,36.09138 55.632526,55.632526 0 0 1 46.65954,48.65351 A 171.08498,171.08498 0 0 0 43.538844,369.41134 H 8.8432884 A 8.8732884,8.8732884 0 0 0 -0.03,378.28465 c 0,147.75519 187.03696,272.47972 408.76947,272.47972 221.73252,0 408.76948,-124.82422 408.76948,-272.47972 a 8.8732884,8.8732884 0 0 0 -8.87327,-8.87331 h -22.5322 A 171.08498,171.08498 0 0 0 746.22355,265.9229 17.347778,17.347778 0 0 0 751.20852,262.234 Z M 543.8328,219.36304 a 171.28438,171.28438 0 0 0 -21.63488,11.66489 178.26337,178.26337 0 0 0 -105.78156,-33.69855 180.75587,180.75587 0 0 0 -107.47645,35.69255 171.98228,171.98228 0 0 0 -21.33578,-11.76459 201.89224,201.89224 0 0 1 255.82988,-1.49551 z M 386.9052,368.91285 a 171.58348,171.58348 0 0 0 -1.994,-19.93996 41.475147,41.475147 0 0 1 59.81993,-3.09072 172.28138,172.28138 0 0 0 -2.4925,23.32978 H 386.8055 Z m 62.31242,-42.27272 a 58.723224,58.723224 0 0 0 -68.79291,2.0937 170.88558,170.88558 0 0 0 -7.77659,-21.73457 83.648194,83.648194 0 0 1 84.64519,-1.59521 170.28738,170.28738 0 0 0 -7.97599,21.53517 z M 465.369,289.65147 a 101.69387,101.69387 0 0 0 -100.69687,1.49551 172.28138,172.28138 0 0 0 -12.36278,-18.6439 124.42544,124.42544 0 0 1 125.62183,-1.49551 172.38108,172.38108 0 0 0 -12.46248,19.34178 z m 24.22707,-32.20309 a 142.17202,142.17202 0 0 0 -148.75221,1.39581 173.57748,173.57748 0 0 0 -16.94898,-16.05167 162.31139,162.31139 0 0 1 183.04895,-1.29612 173.07898,173.07898 0 0 0 -17.24806,16.64991 z M 215.22202,221.65613 a 154.3354,154.3354 0 0 1 153.9366,147.25672 h -23.62887 a 130.50713,130.50713 0 0 0 -260.715158,0 H 61.28542 a 154.3354,154.3354 0 0 1 154.0363,-146.55879 z m 47.55684,147.25672 a 48.055338,48.055338 0 0 0 -95.11368,0 h -23.03067 a 71.484809,71.484809 0 0 1 142.27172,0 h -23.52917 z m -17.84627,0 h -59.81993 a 30.508161,30.508161 0 0 1 59.91962,0.69789 z m 59.12202,0 a 89.031986,89.031986 0 0 0 -177.56547,0 h -23.92797 a 112.95995,112.95995 0 0 1 225.42141,0 H 304.15431 Z M 408.54007,632.619 C 201.26404,632.619 25.493167,520.85543 18.115377,386.55973 H 328.68048 a 72.282407,72.282407 0 0 0 48.35443,66.59953 45.363442,45.363442 0 0 1 29.90997,31.70455 63.508816,63.508816 0 0 1 -9.96999,48.45414 8.8732884,8.8732884 0 0 0 13.26008,11.76459 79.759898,79.759898 0 0 0 14.05768,-64.20672 62.312418,62.312418 0 0 0 -40.97664,-44.06738 54.834928,54.834928 0 0 1 -37.18806,-49.84992 h 97.60618 a 72.282407,72.282407 0 0 0 48.35444,66.59953 8.8732884,8.8732884 0 0 0 3.29009,0.59818 8.8732884,8.8732884 0 0 0 3.29009,-17.04864 54.834928,54.834928 0 0 1 -37.18804,-49.84997 H 799.26388 C 791.58699,521.55336 615.81613,633.31693 408.63978,633.31693 Z M 661.37896,368.91285 a 48.055338,48.055338 0 0 0 -95.01397,0 h -23.52917 a 71.385106,71.385106 0 0 1 142.17201,0 h -23.52917 z m -17.84627,0 h -59.81996 a 30.508161,30.508161 0 0 1 59.42117,0.69789 z m 59.12202,0 a 89.031986,89.031986 0 0 0 -177.56546,0 h -23.92802 a 112.95995,112.95995 0 0 1 225.42144,0 H 702.9538 Z m 41.57484,0 a 130.50713,130.50713 0 0 0 -260.71517,0 h -23.52917 a 154.136,154.136 0 0 1 307.87321,0 z"
     id="path8"
     inkscape:connector-curvature="0"
     style="fill:#3c3835;stroke-width:9.96998692" />
</svg>
