<?xml version="1.0" encoding="UTF-8" standalone="no"?>
<svg
   xmlns:dc="http://purl.org/dc/elements/1.1/"
   xmlns:cc="http://creativecommons.org/ns#"
   xmlns:rdf="http://www.w3.org/1999/02/22-rdf-syntax-ns#"
   xmlns:svg="http://www.w3.org/2000/svg"
   xmlns="http://www.w3.org/2000/svg"
   xmlns:sodipodi="http://sodipodi.sourceforge.net/DTD/sodipodi-0.dtd"
   xmlns:inkscape="http://www.inkscape.org/namespaces/inkscape"
   id="Layer_1"
   data-name="Layer 1"
   viewBox="0 0 639.09998 917.40005"
   version="1.1"
   sodipodi:docname="takeaway.svg"
   width="639.09998"
   height="917.40002"
   inkscape:version="0.92.1 r">
  <metadata
     id="metadata25">
    <rdf:RDF>
      <cc:Work
         rdf:about="">
        <dc:format>image/svg+xml</dc:format>
        <dc:type
           rdf:resource="http://purl.org/dc/dcmitype/StillImage" />
        <dc:title>takeaway</dc:title>
      </cc:Work>
    </rdf:RDF>
  </metadata>
  <sodipodi:namedview
     pagecolor="#ffffff"
     bordercolor="#666666"
     borderopacity="1"
     objecttolerance="10"
     gridtolerance="10"
     guidetolerance="10"
     inkscape:pageopacity="0"
     inkscape:pageshadow="2"
     inkscape:window-width="1596"
     inkscape:window-height="843"
     id="namedview23"
     showgrid="false"
     inkscape:zoom="0.32156094"
     inkscape:cx="31.955"
     inkscape:cy="45.869999"
     inkscape:window-x="0"
     inkscape:window-y="36"
     inkscape:window-maximized="0"
     inkscape:current-layer="Layer_1" />
  <defs
     id="defs4">
    <style
       id="style2">.cls-1{fill:#3c3835;}</style>
  </defs>
  <title
     id="title6">takeaway</title>
  <path
     class="cls-1"
     d="M 632.85924,917.39546 H 12.914871 A 8.884871,8.884871 0 0 1 4.03,908.51059 v -727.1618 a 8.884871,8.884871 0 0 1 8.884871,-8.88488 H 633.15873 a 8.884871,8.884871 0 0 1 8.88487,8.88488 v 727.1618 a 8.884871,8.884871 0 0 1 -9.18436,8.88487 z M 21.400422,899.72554 H 623.97437 V 190.23366 H 21.400422 Z"
     id="path8"
     inkscape:connector-curvature="0"
     style="fill:#3c3835;stroke-width:9.98300076" />
  <path
     class="cls-1"
     d="m 451.36148,239.84917 a 8.884871,8.884871 0 0 1 -8.88487,-8.88487 V 19.224848 H 194.89818 V 231.06413 a 8.884871,8.884871 0 0 1 -17.66991,0 V 10.439807 a 8.884871,8.884871 0 0 1 8.88487,-8.8848713 h 265.24834 a 8.884871,8.884871 0 0 1 8.88487,8.8848713 V 231.06413 a 8.884871,8.884871 0 0 1 -8.88487,8.78504 z"
     id="path10"
     inkscape:connector-curvature="0"
     style="fill:#3c3835;stroke-width:9.98300076" />
  <path
     class="cls-1"
     d="m 258.4899,787.31695 a 40.630814,40.630814 0 0 1 -40.63082,-40.53098 v 0 a 9.9830011,9.9830011 0 0 1 0,-0.9983 l 19.96601,-244.18421 a 8.785041,8.785041 0 0 1 8.78504,-8.08623 h 23.36022 a 8.884871,8.884871 0 0 1 8.78504,8.08623 l 19.966,241.78829 v 0 l -8.78504,0.69881 h 8.48555 a 23.460053,23.460053 0 0 1 0,3.09473 40.630814,40.630814 0 0 1 -39.932,40.13166 z m -22.86107,-41.62911 v 0 a 16.471952,16.471952 0 0 1 0,1.89677 22.968714,22.968714 0 0 0 45.9218,-1.19796 v -2.39592 L 262.28344,510.28867 h -7.08793 z"
     id="path12"
     inkscape:connector-curvature="0"
     style="fill:#3c3835;stroke-width:9.98300076" />
  <path
     class="cls-1"
     d="m 389.96602,787.31695 a 40.630814,40.630814 0 0 1 -40.63081,-40.53098 v 0 c 0,0 0,-0.79864 0,-1.19796 l 18.9677,-194.66852 h -8.88487 a 8.884871,8.884871 0 0 1 -8.78504,-7.68691 c -0.69881,-4.99151 -15.57348,-122.29177 25.9558,-169.71102 a 56.803276,56.803276 0 0 1 44.42436,-19.96601 9.9830011,9.9830011 0 0 1 9.18436,9.2842 v 381.25081 a 17.370422,17.370422 0 0 1 0,3.09473 40.630814,40.630814 0 0 1 -40.2315,40.13166 z M 367.10495,745.8875 v 0 a 16.471952,16.471952 0 0 1 0,1.89677 22.968716,22.968716 0 0 0 45.92181,-1.19796 c 0,0 0,-2.19626 0,-2.39592 v -372.5656 a 39.033534,39.033534 0 0 0 -22.66142,13.27739 c -30.74764,35.04033 -25.05733,121.69278 -22.56158,147.94807 h 10.48215 a 8.884871,8.884871 0 0 1 8.78504,9.98301 z"
     id="path14"
     inkscape:connector-curvature="0"
     style="fill:#3c3835;stroke-width:9.98300076" />
  <path
     class="cls-1"
     d="m 258.4899,510.58816 a 54.607016,54.607016 0 0 1 -54.60702,-54.60701 v -93.04157 a 8.884871,8.884871 0 0 1 17.66991,0 v 93.04157 a 36.937105,36.937105 0 0 0 73.87421,0 v -93.04157 a 8.884871,8.884871 0 0 1 17.66991,0 v 93.04157 a 54.706846,54.706846 0 0 1 -54.60701,54.60701 z"
     id="path16"
     inkscape:connector-curvature="0"
     style="fill:#3c3835;stroke-width:9.98300076" />
  <path
     class="cls-1"
     d="m 243.41557,457.67826 a 8.884871,8.884871 0 0 1 -8.88487,-8.88487 v -85.55432 a 8.884871,8.884871 0 0 1 17.66991,0 v 85.55432 a 8.884871,8.884871 0 0 1 -8.78504,8.88487 z"
     id="path18"
     inkscape:connector-curvature="0"
     style="fill:#3c3835;stroke-width:9.98300076" />
  <path
     class="cls-1"
     d="m 275.16151,457.67826 a 8.884871,8.884871 0 0 1 -8.88487,-8.88487 v -85.55432 a 8.884871,8.884871 0 0 1 17.66991,0 v 85.55432 a 8.884871,8.884871 0 0 1 -8.78504,8.88487 z"
     id="path20"
     inkscape:connector-curvature="0"
     style="fill:#3c3835;stroke-width:9.98300076" />
</svg>
