<svg id="Layer_1" data-name="Layer 1" xmlns="http://www.w3.org/2000/svg" viewBox="0 0 63.91 91.74"><defs><style>.cls-1{fill:#3c3835;}</style></defs><title>takeaway</title><path class="cls-1" d="M1082.1,281.34H1020a0.89,0.89,0,0,1-.89-0.89V207.61a0.89,0.89,0,0,1,.89-0.89h62.13a0.89,0.89,0,0,1,.89.89v72.84A0.89,0.89,0,0,1,1082.1,281.34Zm-61.25-1.77h60.36V208.5h-60.36v71.07Z" transform="translate(-1019.08 -189.6)"/><path class="cls-1" d="M1064.32,213.47a0.89,0.89,0,0,1-.89-0.89V191.37h-24.8v21.22a0.89,0.89,0,0,1-1.77,0v-22.1a0.89,0.89,0,0,1,.89-0.89h26.57a0.89,0.89,0,0,1,.89.89v22.1A0.89,0.89,0,0,1,1064.32,213.47Z" transform="translate(-1019.08 -189.6)"/><path class="cls-1" d="M1045,268.31a4.07,4.07,0,0,1-4.07-4.06v0a1,1,0,0,1,0-.1l2-24.46a0.88,0.88,0,0,1,.88-0.81h2.34a0.89,0.89,0,0,1,.88.81l2,24.22h0l-0.88.07H1049a2.35,2.35,0,0,1,0,.31A4.07,4.07,0,0,1,1045,268.31Zm-2.29-4.17v0a1.65,1.65,0,0,1,0,.19,2.3,2.3,0,0,0,4.6-.12l0-.24-1.93-23.41h-0.71Z" transform="translate(-1019.08 -189.6)"/><path class="cls-1" d="M1058.17,268.31a4.07,4.07,0,0,1-4.07-4.06v0s0-.08,0-0.12l1.9-19.5h-0.89a0.89,0.89,0,0,1-.88-0.77c-0.07-.5-1.56-12.25,2.6-17a5.69,5.69,0,0,1,4.45-2,1,1,0,0,1,.92.93v38.19a1.74,1.74,0,0,1,0,.31A4.07,4.07,0,0,1,1058.17,268.31Zm-2.29-4.15v0a1.65,1.65,0,0,1,0,.19,2.3,2.3,0,0,0,4.6-.12s0-.22,0-0.24V226.67a3.91,3.91,0,0,0-2.27,1.33c-3.08,3.51-2.51,12.19-2.26,14.82H1057a0.89,0.89,0,0,1,.88,1Z" transform="translate(-1019.08 -189.6)"/><path class="cls-1" d="M1045,240.59a5.47,5.47,0,0,1-5.47-5.47V225.8a0.89,0.89,0,0,1,1.77,0v9.32a3.7,3.7,0,0,0,7.4,0V225.8a0.89,0.89,0,0,1,1.77,0v9.32A5.48,5.48,0,0,1,1045,240.59Z" transform="translate(-1019.08 -189.6)"/><path class="cls-1" d="M1043.49,235.29a0.89,0.89,0,0,1-.89-0.89v-8.57a0.89,0.89,0,0,1,1.77,0v8.57A0.89,0.89,0,0,1,1043.49,235.29Z" transform="translate(-1019.08 -189.6)"/><path class="cls-1" d="M1046.67,235.29a0.89,0.89,0,0,1-.89-0.89v-8.57a0.89,0.89,0,0,1,1.77,0v8.57A0.89,0.89,0,0,1,1046.67,235.29Z" transform="translate(-1019.08 -189.6)"/></svg>